<?xml version="1.0" encoding="UTF-8" standalone="no"?>
<svg
   xmlns:dc="http://purl.org/dc/elements/1.1/"
   xmlns:cc="http://creativecommons.org/ns#"
   xmlns:rdf="http://www.w3.org/1999/02/22-rdf-syntax-ns#"
   xmlns:svg="http://www.w3.org/2000/svg"
   xmlns="http://www.w3.org/2000/svg"
   width="199.28911"
   height="186.18607"
   viewBox="0 0 169.90085 202.01188"
   version="1.1">
  <path
     id="Logo"
     d="m 123.15234,9.73 c -3.68,0.12 -5.98,3.13 -8.28,4.29 -2.38,1.2 -5.13,0.97 -7.72,0.98 0,0 -20.999995,0 -20.999995,0 -12.180002,-0.23 -10.100002,-10.27 -3.96,-13.55 2.84,-1.51 5.85,-1.43 8.959997,-1.45 0,0 27.999998,0 27.999998,0 8.6,0.11 15.12,3.23 13,13 -2.58,-1.03 -6.42,-3.35 -9,-3.27 z M 53.152342,9 c 3.94,0 6.23,0.02 10,1.47 12.230001,4.7 8.090001,10.5 22.000003,10.68 0,0 27.829995,0 27.829995,0 3.7,1.14 5.07,4.73 9.17,5.49 5.26,0.99 7.83,-3.74 11.17,-5.05 2.36,-0.92 12.71,-0.63 15.83,-0.59 5.56,0.08 15.26,2.28 13.53,9.96 -1.25,5.52 -7.14,5.03 -11.53,5.04 0,0 -56.999997,0 -56.999997,0 -1.98,0 -4.889998,0.13 -6.719998,-0.56 -2.86,-1.09 -4.75,-4.23 -9.28,-4.23 -5.470002,0.01 -9.780002,5.67 -8.070002,10.77 0.7,2.09 2.21,3.82 4.12,4.89 6.620002,3.72 10.640002,-2.91 14.120002,-4.28 1.84,-0.72 4.829998,-0.59 6.829998,-0.59 0,0 69.999997,0 69.999997,0 2.99,0 7.16,-0.31 9.57,1.74 3.57,3.03 3.24,10.81 -1.59,12.47 -5.02,1.73 -6.94,-5.64 -12.98,-4.67 -3.1,0.49 -5.27,3.17 -8,4.45 -2.56,1.2 -5.25,1 -8,1.01 0,0 -62.999995,0 -62.999995,0 0,0 0,6 0,6 0,0 65.999995,0 65.999995,0 9.97,0.17 11.06,9.85 18.89,3.57 1.41,-1.14 2.05,-2.18 3.11,-3.57 8.87,5.39 4.78,14.84 -7,15 0,0 -66.999997,0 -66.999997,0 -2.6,-0.01 -5.449998,0.2 -7.829998,-0.98 -2.27,-1.13 -4.06,-3.67 -7.18,-4.49 -4.850002,-1.27 -10.540002,3.54 -10.540002,8.47 0,4.94 5.79,9.41 10.550002,8.02 6.54,-1.92 2.21,-5 13.999998,-5.02 0,0 86.999997,0 86.999997,0 2.87,0.01 6.35,-0.29 8.72,1.6 4.23,3.36 4.47,10.16 -2.72,12.4 -1.11,-1.38 -1.58,-2.18 -3.07,-3.29 -8.03,-5.99 -9.63,4.1 -19.93,4.29 0,0 -82.999995,0 -82.999995,0 0,0 0,5 0,5 0,0 82.999995,0 82.999995,0 10.33,0.19 11.58,10.12 19.89,4.29 1.5,-1.06 2.02,-1.93 3.11,-3.29 6.91,2.1 7.4,8.62 3.35,12.26 -2.31,2.09 -6.42,1.74 -9.35,1.74 0,0 -88.999997,0 -88.999997,0 -9.639998,-0.17 -9.829998,-7.87 -16.98,-4.65 -8.93,4.02 -6.01,15.25 1.980002,16.32 4.88,0.65 7.35,-3.28 10.17,-4.69 2.38,-1.18 5.229998,-0.97 7.829998,-0.98 0,0 64.999997,0 64.999997,0 3.16,0.01 7.03,-0.31 9.66,1.74 5.17,4.02 3.95,10.37 -1.66,13.26 -1.07,-1.26 -1.83,-2.32 -3.18,-3.35 -7.11,-5.44 -11.15,1.33 -14.99,2.77 -1.89,0.7 -4.79,0.58 -6.83,0.58 0,0 -61.999995,0 -61.999995,0 0,0 0,6 0,6 0,0 63.999995,0 63.999995,0 9.92,0.19 8.93,7.02 16,5.53 4.95,-1.05 6.6,-6.73 11.96,-4.77 5.29,1.93 6,9.1 1.74,12.5 -2.54,2.04 -6.61,1.73 -9.7,1.74 0,0 -71.999997,0 -71.999997,0 -10.019998,-0.19 -9.959998,-6.45 -15.999998,-5.46 -9.150002,1.49 -10.020002,13.75 -1.000002,16.68 4.830002,1.56 7.840002,-2.85 10.420002,-4.24 2.27,-1.23 5.079998,-0.98 7.579998,-0.98 0,0 60.999997,0 60.999997,0 4.56,0.09 10.84,1.95 9.16,7.98 -1.84,6.56 -9.67,7.01 -15.16,7.02 0,0 -9,0 -9,0 -9.92,-0.19 -8.91,-7.02 -16,-5.53 -3.99,0.84 -5.6,4.29 -9.17,5.38 0,0 -28.829995,0 -28.829995,0 -14.020002,0.18 -7.46,6.24 -21.000003,12.75 -17.54,8.43 -37.28,-3.49 -39,-22.6 -15.01,4.26 -31.0500005,-5.38 -33.6800005,-21 -1.4799998,-8.85 0.67,-14.37 4.68,-22 -17.0299995,-3.2 -25.1399995,-24.1 -17.3299995,-39 3.92,-7.47 9.86,-10.96 17.3299995,-14 C -12.337658,62.07 -8.2876583,43.1 7.1523419,35.38 13.402342,32.25 19.402342,33 26.152342,33 c 2.08,-14.66 12.07,-24 27,-24 z m 69.999998,193 c 0,0 -34.999995,0 -34.999995,0 -2.92,-0.01 -6.33,0.29 -8.77,-1.6 -3.830002,-2.95 -6.090002,-12.18 5.77,-12.4 0,0 25.999995,0 25.999995,0 8.88,0.17 7.45,4.15 13,5.16 2.81,0.51 6.29,-1.26 9,-2.16 1.43,7.73 -2.65,10.86 -10,11 z"
     style="fill:#ffffff;stroke:none;stroke-width:0" />
</svg>
