<?xml version="1.0" encoding="UTF-8" standalone="no"?>
<svg
   xmlns:dc="http://purl.org/dc/elements/1.1/"
   xmlns:cc="http://creativecommons.org/ns#"
   xmlns:rdf="http://www.w3.org/1999/02/22-rdf-syntax-ns#"
   xmlns:svg="http://www.w3.org/2000/svg"
   xmlns="http://www.w3.org/2000/svg"
   width="5.7249241cm"
   height="1.7105845cm"
   viewBox="0 0 676.08627 202.01188"
   version="1.1">
  <path
     id="Logo Text"
     d="m 264.08626,80.08 c 0,-13.31 9.11,-21.08 19.39,-21.08 5.25,0 8.87,2.23 11.76,4.75 0,0 -3.48,4.48 -3.48,4.48 -2.36,-2.12 -4.8,-3.6 -8.06,-3.6 -7.25,0 -12.58,6.26 -12.58,15.45 0,9.2 5.03,15.31 12.43,15.31 3.71,0 6.96,-1.7 9.47,-3.98 0,0 2.89,4.5 2.89,4.5 -3.56,3.25 -8.14,5.09 -12.95,5.09 -10.66,0 -18.87,-7.67 -18.87,-20.92 z m 36,0 c 0,-13.31 8.81,-21.08 18.65,-21.08 9.85,0 18.64,7.77 18.64,21.08 0,13.25 -8.79,20.92 -18.64,20.92 -9.84,0 -18.65,-7.67 -18.65,-20.92 z m 30.34,0 c 0,-9.19 -4.73,-15.45 -11.69,-15.45 -6.97,0 -11.62,6.26 -11.62,15.45 0,9.2 4.65,15.31 11.62,15.31 6.96,0 11.69,-6.11 11.69,-15.31 z m 14.58,27.9 c 0,-3.53 2.22,-6.9 6,-9.34 0,0 0,-0.3 0,-0.3 -2.14,-1.21 -3.71,-3.31 -3.71,-6.42 0,-3.25 2.44,-5.87 4.52,-7.36 0,0 0,-0.29 0,-0.29 -2.66,-2.16 -5.25,-6.02 -5.25,-10.86 0,-8.85 6.95,-14.41 15.09,-14.41 2.22,0 4.22,0.53 5.63,1 0,0 13.98,0 13.98,0 0,0 0,5.19 0,5.19 0,0 -8.22,0 -8.22,0 1.94,1.86 3.27,4.84 3.27,8.36 0,8.64 -6.52,14.04 -14.66,14.04 -2,0 -4.21,-0.51 -6,-1.4 -1.46,1.26 -2.57,2.59 -2.57,4.83 0,2.59 1.62,4.37 7.03,4.37 0,0 7.84,0 7.84,0 9.31,0 13.99,2.95 13.99,9.59 0,7.57 -7.85,14.02 -20.29,14.02 -9.84,0 -16.65,-3.84 -16.65,-11.02 z m 25.17,-34.57 c 0,-5.88 -3.78,-9.44 -8.52,-9.44 -4.73,0 -8.57,3.5 -8.57,9.44 0,5.87 3.92,9.59 8.57,9.59 4.6,0 8.52,-3.72 8.52,-9.59 z m 5.25,32.62 c 0,-3.75 -2.89,-5.03 -8.22,-5.03 0,0 -6.95,0 -6.95,0 -1.49,0 -3.41,-0.22 -5.19,-1 -2.87,2.16 -4.14,4.61 -4.14,7.06 0,4.44 4.37,7.36 11.7,7.36 7.69,0 12.8,-4.22 12.8,-8.39 z m 14.69,-46.03 c 0,0 5.54,0 5.54,0 0,0 0.6,5.81 0.6,5.81 0,0 0.23,0 0.23,0 3.85,-3.76 7.99,-6.81 13.47,-6.81 8.44,0 12.28,5.48 12.28,15.7 0,0 0,25.3 0,25.3 0,0 -6.73,0 -6.73,0 0,0 0,-24.41 0,-24.41 0,-7.5 -2.3,-10.67 -7.63,-10.67 -4.14,0 -6.95,2.06 -11.03,6.11 0,0 0,28.97 0,28.97 0,0 -6.73,0 -6.73,0 0,0 0,-40 0,-40 z m 45,0 c 0,0 6.73,0 6.73,0 0,0 0,40 0,40 0,0 -6.73,0 -6.73,0 0,0 0,-40 0,-40 z m -1.25,-12.62 c 0,-2.74 2,-4.38 4.65,-4.38 2.68,0 4.68,1.64 4.68,4.38 0,2.51 -2,4.35 -4.68,4.35 -2.65,0 -4.65,-1.84 -4.65,-4.35 z m 39.31,-0.36 c -1.48,-0.64 -3.11,-1.02 -4.52,-1.02 -3.84,0 -5.7,2.69 -5.7,7.77 0,0 0,6.23 0,6.23 0,0 8.52,0 8.52,0 0,0 0,5.48 0,5.48 0,0 -8.52,0 -8.52,0 0,0 0,34.52 0,34.52 0,0 -6.73,0 -6.73,0 0,0 0,-34.52 0,-34.52 0,0 -5.47,0 -5.47,0 0,0 0,-5.1 0,-5.1 0,0 5.47,-0.38 5.47,-0.38 0,0 0,-6.3 0,-6.3 0,-7.98 3.7,-13.09 11.7,-13.09 2.44,0 4.8,0.52 6.73,1.33 0,0 -1.48,5.08 -1.48,5.08 z m 1.87,69.17 c 0,0 1.33,-5.39 1.33,-5.39 0.82,0.29 2,0.65 3.03,0.65 4.6,0 7.49,-3.65 9.11,-8.57 0,0 0.89,-3 0.89,-3 0,0 -16.14,-39.88 -16.14,-39.88 0,0 7.03,0 7.03,0 0,0 8.22,22.14 8.22,22.14 1.19,3.45 2.6,7.55 3.85,11.14 0,0 0.37,0 0.37,0 1.11,-3.59 2.3,-7.62 3.41,-11.14 0,0 7.17,-22.14 7.17,-22.14 0,0 6.59,0 6.59,0 0,0 -15.17,43.11 -15.17,43.11 -2.81,7.83 -6.97,13.89 -14.95,13.89 -1.92,0 -3.49,-0.28 -4.74,-0.81 z m -206.39,25.39 c 0,0 -7.32,0 -7.32,0 0,0 0,-2.58 0,-2.58 0,0 17.71,0 17.71,0 0,0 0,2.58 0,2.58 0,0 -7.32,0 -7.32,0 0,0 0,21.42 0,21.42 0,0 -3.07,0 -3.07,0 0,0 0,-21.42 0,-21.42 z m 14.69,-4.45 c 0,0 3,0 3,0 0,0 0,7.18 0,7.18 0,0 -0.09,3.69 -0.09,3.69 1.64,-1.64 3.5,-3 5.94,-3 3.76,0 5.48,2.45 5.48,6.94 0,0 0,11.06 0,11.06 0,0 -3.02,0 -3.02,0 0,0 0,-10.69 0,-10.69 0,-3.28 -1.01,-4.67 -3.39,-4.67 -1.86,0 -3.11,0.91 -4.92,2.69 0,0 0,12.67 0,12.67 0,0 -3,0 -3,0 0,0 0,-25.87 0,-25.87 z m 18.64,17.18 c 0,-5.7 3.94,-9.31 8.1,-9.31 4.54,0 7.12,3.28 7.12,8.3 0,0.65 -0.06,1.28 -0.12,1.7 0,0 -12.1,0 -12.1,0 0.21,3.42 2.55,5.59 5.96,5.59 1.75,0 3.15,-0.46 4.48,-1.26 0,0 1.09,1.83 1.09,1.83 -1.59,1.03 -3.5,1.84 -5.95,1.84 -4.75,0 -8.58,-3.34 -8.58,-8.69 z m 12.58,-1.45 c 0,-3.55 -1.66,-5.44 -4.45,-5.44 -2.55,0 -4.78,2 -5.16,5.44 0,0 9.61,0 9.61,0 z m 14.05,-13.86 c 0,0 6.06,0 6.06,0 7.44,0 11.42,4.31 11.42,11.92 0,7.58 -3.98,12.08 -11.28,12.08 0,0 -6.2,0 -6.2,0 0,0 0,-24 0,-24 z m 5.79,21.5 c 5.72,0 8.52,-3.53 8.52,-9.58 0,-6.08 -2.8,-9.44 -8.52,-9.44 0,0 -2.73,0 -2.73,0 0,0 0,19.02 0,19.02 0,0 2.73,0 2.73,0 z m 15.82,-2.03 c 0,-3.8 3.4,-5.7 11.03,-6.55 0,-2.25 -0.77,-4.4 -3.71,-4.4 -2.07,0 -3.96,0.93 -5.37,1.86 0,0 -1.19,-2.04 -1.19,-2.04 1.64,-1.04 4.19,-2.34 7.06,-2.34 4.35,0 6.21,2.94 6.21,7.25 0,0 0,10.75 0,10.75 0,0 -2.49,0 -2.49,0 0,0 -0.26,-2.56 -0.26,-2.56 0,0 -0.1,0 -0.1,0 -1.71,1.42 -3.73,2.56 -5.93,2.56 -3,0 -5.25,-1.84 -5.25,-4.53 z m 11.03,-0.11 c 0,0 0,-4.72 0,-4.72 -6.05,0.69 -8.1,2.08 -8.1,4.25 0,1.94 1.39,2.7 3.18,2.7 1.75,0 3.17,-0.76 4.92,-2.23 z m 9.62,-1.23 c 0,0 0,-9.68 0,-9.68 0,0 -2.67,0 -2.67,0 0,0 0,-2.28 0,-2.28 0,0 2.8,-0.17 2.8,-0.17 0,0 0.36,-5.02 0.36,-5.02 0,0 2.51,0 2.51,0 0,0 0,5.02 0,5.02 0,0 4.85,0 4.85,0 0,0 0,2.45 0,2.45 0,0 -4.85,0 -4.85,0 0,0 0,9.74 0,9.74 0,2.15 0.69,3.37 2.77,3.37 0.62,0 1.45,-0.22 2.05,-0.45 0,0 0.59,2.23 0.59,2.23 -1.02,0.33 -2.2,0.66 -3.3,0.66 -3.83,0 -5.11,-2.37 -5.11,-5.87 z m 9.35,1.34 c 0,-3.8 3.4,-5.7 11.03,-6.55 0,-2.25 -0.77,-4.4 -3.71,-4.4 -2.07,0 -3.96,0.93 -5.37,1.86 0,0 -1.19,-2.04 -1.19,-2.04 1.64,-1.04 4.19,-2.34 7.06,-2.34 4.35,0 6.21,2.94 6.21,7.25 0,0 0,10.75 0,10.75 0,0 -2.49,0 -2.49,0 0,0 -0.26,-2.56 -0.26,-2.56 0,0 -0.1,0 -0.1,0 -1.71,1.42 -3.73,2.56 -5.93,2.56 -3,0 -5.25,-1.84 -5.25,-4.53 z m 11.03,-0.11 c 0,0 0,-4.72 0,-4.72 -6.05,0.69 -8.1,2.08 -8.1,4.25 0,1.94 1.39,2.7 3.18,2.7 1.75,0 3.17,-0.76 4.92,-2.23 z m 14.61,1.11 c 0,0 1.81,-1.97 1.81,-1.97 1.75,1.72 4.19,2.83 6.7,2.83 3.17,0 5.08,-1.49 5.08,-3.74 0,-2.34 -1.75,-3.09 -4.03,-4.06 0,0 -3.5,-1.42 -3.5,-1.42 -2.23,-0.91 -4.91,-2.53 -4.91,-5.88 0,-3.51 3.24,-6.23 7.63,-6.23 2.86,0 5.4,1.23 7.12,3 0,0 -1.62,1.83 -1.62,1.83 -1.49,-1.3 -3.27,-2.14 -5.5,-2.14 -2.75,0 -4.53,1.31 -4.53,3.36 0,2.22 2.11,3.06 4,3.81 0,0 3.47,1.41 3.47,1.41 2.79,1.15 4.98,2.7 4.98,6.11 0,3.6 -3.17,6.62 -8.22,6.62 -3.44,0 -6.37,-1.37 -8.48,-3.53 z m 20.12,-5.44 c 0,-5.61 4.06,-9.03 8.66,-9.03 2.34,0 3.95,1 5.25,2.13 0,0 -1.56,1.9 -1.56,1.9 -1.05,-0.89 -2.14,-1.51 -3.6,-1.51 -3.23,0 -5.61,2.64 -5.61,6.51 0,3.89 2.25,6.47 5.55,6.47 1.64,0 3.09,-0.72 4.22,-1.67 0,0 1.3,1.9 1.3,1.9 -1.6,1.46 -3.65,2.27 -5.79,2.27 -4.75,0 -8.42,-3.37 -8.42,-8.97 z m 18.36,-9.03 c 0,0 3,0 3,0 0,0 0,18 0,18 0,0 -3,0 -3,0 0,0 0,-18 0,-18 z m -0.56,-5.94 c 0,-1.22 0.89,-1.95 2.08,-1.95 1.18,0 2.08,0.73 2.08,1.95 0,1.13 -0.9,1.94 -2.08,1.94 -1.19,0 -2.08,-0.81 -2.08,-1.94 z m 8.2,15.25 c 0,-5.7 3.94,-9.31 8.1,-9.31 4.54,0 7.12,3.28 7.12,8.3 0,0.65 -0.06,1.28 -0.12,1.7 0,0 -12.1,0 -12.1,0 0.21,3.42 2.55,5.59 5.96,5.59 1.75,0 3.15,-0.46 4.48,-1.26 0,0 1.09,1.83 1.09,1.83 -1.59,1.03 -3.5,1.84 -5.95,1.84 -4.75,0 -8.58,-3.34 -8.58,-8.69 z m 12.58,-1.45 c 0,-3.55 -1.66,-5.44 -4.45,-5.44 -2.55,0 -4.78,2 -5.16,5.44 0,0 9.61,0 9.61,0 z m 6.78,-7.86 c 0,0 2.47,0 2.47,0 0,0 0.27,3.03 0.27,3.03 0,0 0.09,0 0.09,0 1.72,-1.67 3.58,-3.03 6.02,-3.03 3.76,0 5.48,2.45 5.48,6.94 0,0 0,11.06 0,11.06 0,0 -3.02,0 -3.02,0 0,0 0,-10.69 0,-10.69 0,-3.28 -1.01,-4.67 -3.39,-4.67 -1.86,0 -3.11,0.91 -4.92,2.69 0,0 0,12.67 0,12.67 0,0 -3,0 -3,0 0,0 0,-18 0,-18 z m 18.64,9.03 c 0,-5.61 4.06,-9.03 8.66,-9.03 2.34,0 3.95,1 5.25,2.13 0,0 -1.56,1.9 -1.56,1.9 -1.05,-0.89 -2.14,-1.51 -3.6,-1.51 -3.23,0 -5.61,2.64 -5.61,6.51 0,3.89 2.25,6.47 5.55,6.47 1.64,0 3.09,-0.72 4.22,-1.67 0,0 1.3,1.9 1.3,1.9 -1.6,1.46 -3.65,2.27 -5.79,2.27 -4.75,0 -8.42,-3.37 -8.42,-8.97 z m 16,0.28 c 0,-5.7 3.94,-9.31 8.1,-9.31 4.54,0 7.12,3.28 7.12,8.3 0,0.65 -0.06,1.28 -0.12,1.7 0,0 -12.1,0 -12.1,0 0.21,3.42 2.55,5.59 5.96,5.59 1.75,0 3.15,-0.46 4.48,-1.26 0,0 1.09,1.83 1.09,1.83 -1.59,1.03 -3.5,1.84 -5.95,1.84 -4.75,0 -8.58,-3.34 -8.58,-8.69 z m 12.58,-1.45 c 0,-3.55 -1.66,-5.44 -4.45,-5.44 -2.55,0 -4.78,2 -5.16,5.44 0,0 9.61,0 9.61,0 z m 12.66,-1.81 c 0,-7.41 4.59,-12.05 10.73,-12.05 2.94,0 5.24,1.45 6.63,3 0,0 -1.66,1.86 -1.66,1.86 -1.25,-1.27 -2.86,-2.17 -4.94,-2.17 -4.59,0 -7.62,3.54 -7.62,9.26 0,5.77 2.9,9.38 7.51,9.38 2.32,0 4.07,-0.95 5.61,-2.55 0,0 1.69,1.8 1.69,1.8 -1.91,2.17 -4.28,3.42 -7.42,3.42 -6.02,0 -10.53,-4.53 -10.53,-11.95 z m 20.76,2.98 c 0,-5.61 3.94,-9.03 8.33,-9.03 4.38,0 8.31,3.42 8.31,9.03 0,5.6 -3.93,8.97 -8.31,8.97 -4.39,0 -8.33,-3.37 -8.33,-8.97 z m 13.53,0 c 0,-3.87 -2.11,-6.51 -5.2,-6.51 -3.11,0 -5.19,2.64 -5.19,6.51 0,3.89 2.08,6.47 5.19,6.47 3.09,0 5.2,-2.58 5.2,-6.47 z m 7.83,-9.03 c 0,0 2.47,0 2.47,0 0,0 0.27,3.06 0.27,3.06 0,0 0.09,0 0.09,0 1.56,-1.7 3.44,-3.06 5.58,-3.06 2.75,0 4.23,1.33 4.95,3.42 1.86,-2 3.74,-3.42 5.91,-3.42 3.7,0 5.45,2.45 5.45,6.94 0,0 0,11.06 0,11.06 0,0 -3,0 -3,0 0,0 0,-10.69 0,-10.69 0,-3.28 -1.06,-4.67 -3.34,-4.67 -1.38,0 -2.83,0.88 -4.52,2.69 0,0 0,12.67 0,12.67 0,0 -3,0 -3,0 0,0 0,-10.69 0,-10.69 0,-3.28 -1.06,-4.67 -3.34,-4.67 -1.35,0 -2.86,0.88 -4.52,2.69 0,0 0,12.67 0,12.67 0,0 -3,0 -3,0 0,0 0,-18 0,-18 z m 31,0 c 0,0 2.47,0 2.47,0 0,0 0.27,2.52 0.27,2.52 0,0 0.09,0 0.09,0 1.62,-1.32 3.64,-2.52 5.72,-2.52 4.62,0 7.12,3.58 7.12,8.77 0,5.76 -3.65,9.23 -7.78,9.23 -1.62,0 -3.34,-0.75 -4.95,-2.08 0,0 0.06,3.27 0.06,3.27 0,0 0,6.81 0,6.81 0,0 -3,0 -3,0 0,0 0,-26 0,-26 z m 12.55,8.8 c 0,-3.74 -1.33,-6.25 -4.74,-6.25 -1.51,0 -3.06,0.81 -4.81,2.33 0,0 0,8.78 0,8.78 1.63,1.36 3.2,1.84 4.39,1.84 2.97,0 5.16,-2.61 5.16,-6.7 z m 5.33,4.67 c 0,-3.8 3.4,-5.7 11.03,-6.55 0,-2.25 -0.77,-4.4 -3.71,-4.4 -2.07,0 -3.96,0.93 -5.37,1.86 0,0 -1.19,-2.04 -1.19,-2.04 1.64,-1.04 4.19,-2.34 7.06,-2.34 4.35,0 6.21,2.94 6.21,7.25 0,0 0,10.75 0,10.75 0,0 -2.49,0 -2.49,0 0,0 -0.26,-2.56 -0.26,-2.56 0,0 -0.1,0 -0.1,0 -1.71,1.42 -3.73,2.56 -5.93,2.56 -3,0 -5.25,-1.84 -5.25,-4.53 z m 11.03,-0.11 c 0,0 0,-4.72 0,-4.72 -6.05,0.69 -8.1,2.08 -8.1,4.25 0,1.94 1.39,2.7 3.18,2.7 1.75,0 3.17,-0.76 4.92,-2.23 z m 9.09,-13.36 c 0,0 2.47,0 2.47,0 0,0 0.27,3.03 0.27,3.03 0,0 0.09,0 0.09,0 1.72,-1.67 3.58,-3.03 6.02,-3.03 3.76,0 5.48,2.45 5.48,6.94 0,0 0,11.06 0,11.06 0,0 -3.02,0 -3.02,0 0,0 0,-10.69 0,-10.69 0,-3.28 -1.01,-4.67 -3.39,-4.67 -1.86,0 -3.11,0.91 -4.92,2.69 0,0 0,12.67 0,12.67 0,0 -3,0 -3,0 0,0 0,-18 0,-18 z m 18.19,25.64 c 0,0 0.59,-2.41 0.59,-2.41 0.36,0.13 0.89,0.3 1.35,0.3 2.04,0 3.34,-1.67 4.06,-3.92 0,0 0.39,-1.38 0.39,-1.38 0,0 -7.19,-18.23 -7.19,-18.23 0,0 3.14,0 3.14,0 0,0 3.66,10.13 3.66,10.13 0.53,1.57 1.16,3.45 1.72,5.09 0,0 0.15,0 0.15,0 0.5,-1.64 1.04,-3.49 1.54,-5.09 0,0 3.2,-10.13 3.2,-10.13 0,0 2.94,0 2.94,0 0,0 -6.77,19.72 -6.77,19.72 -1.27,3.58 -3.11,6.28 -6.67,6.28 -0.86,0 -1.55,-0.12 -2.11,-0.36 z"
     style="fill:white;stroke:none;stroke-width:0" />
  <path
     id="Logo"
     d="m 146.31626,9.73 c -3.68,0.12 -5.98,3.13 -8.28,4.29 -2.38,1.2 -5.13,0.97 -7.72,0.98 0,0 -21,0 -21,0 -12.180003,-0.23 -10.100003,-10.27 -3.96,-13.55 2.84,-1.51 5.85,-1.43 8.96,-1.45 0,0 28,0 28,0 8.6,0.11 15.12,3.23 13,13 -2.58,-1.03 -6.42,-3.35 -9,-3.27 z M 76.316257,9 c 3.94,0 6.23,0.02 10,1.47 12.23,4.7 8.09,10.5 22.000003,10.68 0,0 27.83,0 27.83,0 3.7,1.14 5.07,4.73 9.17,5.49 5.26,0.99 7.83,-3.74 11.17,-5.05 2.36,-0.92 12.71,-0.63 15.83,-0.59 5.56,0.08 15.26,2.28 13.53,9.96 -1.25,5.52 -7.14,5.03 -11.53,5.04 0,0 -57,0 -57,0 -1.98,0 -4.89,0.13 -6.72,-0.56 -2.86,-1.09 -4.75,-4.23 -9.28,-4.23 -5.470003,0.01 -9.780003,5.67 -8.070003,10.77 0.7,2.09 2.21,3.82 4.12,4.89 6.620003,3.72 10.640003,-2.91 14.120003,-4.28 1.84,-0.72 4.83,-0.59 6.83,-0.59 0,0 70,0 70,0 2.99,0 7.16,-0.31 9.57,1.74 3.57,3.03 3.24,10.81 -1.59,12.47 -5.02,1.73 -6.94,-5.64 -12.98,-4.67 -3.1,0.49 -5.27,3.17 -8,4.45 -2.56,1.2 -5.25,1 -8,1.01 0,0 -63,0 -63,0 0,0 0,6 0,6 0,0 66,0 66,0 9.97,0.17 11.06,9.85 18.89,3.57 1.41,-1.14 2.05,-2.18 3.11,-3.57 8.87,5.39 4.78,14.84 -7,15 0,0 -67,0 -67,0 -2.6,-0.01 -5.45,0.2 -7.83,-0.98 -2.27,-1.13 -4.06,-3.67 -7.18,-4.49 -4.850003,-1.27 -10.540003,3.54 -10.540003,8.47 0,4.94 5.79,9.41 10.550003,8.02 6.54,-1.92 2.21,-5 14,-5.02 0,0 87,0 87,0 2.87,0.01 6.35,-0.29 8.72,1.6 4.23,3.36 4.47,10.16 -2.72,12.4 -1.11,-1.38 -1.58,-2.18 -3.07,-3.29 -8.03,-5.99 -9.63,4.1 -19.93,4.29 0,0 -83,0 -83,0 0,0 0,5 0,5 0,0 83,0 83,0 10.33,0.19 11.58,10.12 19.89,4.29 1.5,-1.06 2.02,-1.93 3.11,-3.29 6.91,2.1 7.4,8.62 3.35,12.26 -2.31,2.09 -6.42,1.74 -9.35,1.74 0,0 -89,0 -89,0 -9.64,-0.17 -9.83,-7.87 -16.980003,-4.65 -8.93,4.02 -6.01,15.25 1.980003,16.32 4.88,0.65 7.35,-3.28 10.17,-4.69 2.38,-1.18 5.23,-0.97 7.83,-0.98 0,0 65,0 65,0 3.16,0.01 7.03,-0.31 9.66,1.74 5.17,4.02 3.95,10.37 -1.66,13.26 -1.07,-1.26 -1.83,-2.32 -3.18,-3.35 -7.11,-5.44 -11.15,1.33 -14.99,2.77 -1.89,0.7 -4.79,0.58 -6.83,0.58 0,0 -62,0 -62,0 0,0 0,6 0,6 0,0 64,0 64,0 9.92,0.19 8.93,7.02 16,5.53 4.95,-1.05 6.6,-6.73 11.96,-4.77 5.29,1.93 6,9.1 1.74,12.5 -2.54,2.04 -6.61,1.73 -9.7,1.74 0,0 -72,0 -72,0 -10.02,-0.19 -9.96,-6.45 -16,-5.46 -9.150003,1.49 -10.020003,13.75 -1.000003,16.68 4.830003,1.56 7.840003,-2.85 10.420003,-4.24 2.27,-1.23 5.08,-0.98 7.58,-0.98 0,0 61,0 61,0 4.56,0.09 10.84,1.95 9.16,7.98 -1.84,6.56 -9.67,7.01 -15.16,7.02 0,0 -9,0 -9,0 -9.92,-0.19 -8.91,-7.02 -16,-5.53 -3.99,0.84 -5.6,4.29 -9.17,5.38 0,0 -28.83,0 -28.83,0 -14.020003,0.18 -7.46,6.24 -21.000003,12.75 -17.54,8.43 -37.28,-3.49 -39,-22.6 -15.01,4.26 -31.05,-5.38 -33.68,-21 -1.48,-8.85 0.67,-14.37 4.68,-22 C 3.2862572,125.8 -4.8237428,104.9 2.9862572,90 c 3.92,-7.47 9.8599998,-10.96 17.3299998,-14 -9.49,-13.93 -5.44,-32.9 10,-40.62 6.25,-3.13 12.25,-2.38 19,-2.38 2.08,-14.66 12.07,-24 27,-24 z m 70.000003,193 c 0,0 -35,0 -35,0 -2.92,-0.01 -6.33,0.29 -8.77,-1.6 -3.830003,-2.95 -6.090003,-12.18 5.77,-12.4 0,0 26,0 26,0 8.88,0.17 7.45,4.15 13,5.16 2.81,0.51 6.29,-1.26 9,-2.16 1.43,7.73 -2.65,10.86 -10,11 z"
     style="fill:#00abc4;stroke:none;stroke-width:0" />
</svg>
